<svg width="22" height="18" viewBox="0 0 22 18" fill="none" xmlns="http://www.w3.org/2000/svg">
<path d="M4.71429 13.6786C4.71429 13.4699 4.53013 13.2857 4.32143 13.2857H3.53571C3.32701 13.2857 3.14286 13.4699 3.14286 13.6786V14.4643C3.14286 14.673 3.32701 14.8571 3.53571 14.8571H4.32143C4.53013 14.8571 4.71429 14.673 4.71429 14.4643V13.6786ZM4.71429 10.5357C4.71429 10.327 4.53013 10.1429 4.32143 10.1429H3.53571C3.32701 10.1429 3.14286 10.327 3.14286 10.5357V11.3214C3.14286 11.5301 3.32701 11.7143 3.53571 11.7143H4.32143C4.53013 11.7143 4.71429 11.5301 4.71429 11.3214V10.5357ZM4.71429 7.39286C4.71429 7.18415 4.53013 7 4.32143 7H3.53571C3.32701 7 3.14286 7.18415 3.14286 7.39286V8.17857C3.14286 8.38728 3.32701 8.57143 3.53571 8.57143H4.32143C4.53013 8.57143 4.71429 8.38728 4.71429 8.17857V7.39286ZM18.8571 13.6786C18.8571 13.4699 18.673 13.2857 18.4643 13.2857H6.67857C6.46987 13.2857 6.28571 13.4699 6.28571 13.6786V14.4643C6.28571 14.673 6.46987 14.8571 6.67857 14.8571H18.4643C18.673 14.8571 18.8571 14.673 18.8571 14.4643V13.6786ZM18.8571 10.5357C18.8571 10.327 18.673 10.1429 18.4643 10.1429H6.67857C6.46987 10.1429 6.28571 10.327 6.28571 10.5357V11.3214C6.28571 11.5301 6.46987 11.7143 6.67857 11.7143H18.4643C18.673 11.7143 18.8571 11.5301 18.8571 11.3214V10.5357ZM18.8571 7.39286C18.8571 7.18415 18.673 7 18.4643 7H6.67857C6.46987 7 6.28571 7.18415 6.28571 7.39286V8.17857C6.28571 8.38728 6.46987 8.57143 6.67857 8.57143H18.4643C18.673 8.57143 18.8571 8.38728 18.8571 8.17857V7.39286ZM20.4286 16.0357C20.4286 16.2444 20.2444 16.4286 20.0357 16.4286H1.96429C1.75558 16.4286 1.57143 16.2444 1.57143 16.0357V5.82143C1.57143 5.61272 1.75558 5.42857 1.96429 5.42857H20.0357C20.2444 5.42857 20.4286 5.61272 20.4286 5.82143V16.0357ZM22 2.67857C22 1.59821 21.1161 0.714285 20.0357 0.714285H1.96429C0.883929 0.714285 0 1.59821 0 2.67857V16.0357C0 17.1161 0.883929 18 1.96429 18H20.0357C21.1161 18 22 17.1161 22 16.0357V2.67857Z" fill="#98A9BC"/>
</svg>
