<svg width="15" height="19" viewBox="0 0 15 19" fill="none" xmlns="http://www.w3.org/2000/svg">
<path d="M6.32422 1.24219C6.61068 0.955729 6.9401 0.8125 7.3125 0.8125C7.6849 0.8125 8 0.955729 8.25781 1.24219C8.54427 1.5 8.6875 1.8151 8.6875 2.1875C8.6875 2.1875 8.6875 2.24479 8.6875 2.35938C9.89062 2.67448 10.8789 3.34766 11.6523 4.37891C12.4258 5.41016 12.8125 6.57031 12.8125 7.85938V13.875C12.8125 14.3333 13.0417 14.5625 13.5 14.5625H14.1875V15.9375H9.24609C9.33203 16.1667 9.375 16.3958 9.375 16.625C9.375 17.1979 9.17448 17.6849 8.77344 18.0859C8.3724 18.487 7.88542 18.6875 7.3125 18.6875C6.73958 18.6875 6.2526 18.487 5.85156 18.0859C5.45052 17.6849 5.25 17.1979 5.25 16.625C5.25 16.3958 5.29297 16.1667 5.37891 15.9375H0.4375V14.5625H1.125C1.58333 14.5625 1.8125 14.3333 1.8125 13.875V7.6875C1.8125 6.42708 2.19922 5.3099 2.97266 4.33594C3.77474 3.33333 4.76302 2.67448 5.9375 2.35938C5.9375 2.24479 5.9375 2.1875 5.9375 2.1875C5.9375 1.8151 6.06641 1.5 6.32422 1.24219ZM7.01172 3.5625C5.92318 3.64844 5.00651 4.09245 4.26172 4.89453C3.54557 5.66797 3.1875 6.59896 3.1875 7.6875V13.875C3.1875 14.1042 3.14453 14.3333 3.05859 14.5625H11.5664C11.4805 14.3333 11.4375 14.1042 11.4375 13.875V7.85938C11.4375 6.71354 11.0508 5.72526 10.2773 4.89453C9.50391 4.03516 8.55859 3.59115 7.44141 3.5625H7.3125H7.14062H7.01172ZM8 16.625C8 16.1667 7.77083 15.9375 7.3125 15.9375C6.85417 15.9375 6.625 16.1667 6.625 16.625C6.625 17.0833 6.85417 17.3125 7.3125 17.3125C7.77083 17.3125 8 17.0833 8 16.625Z" fill="white"/>
</svg>
