<svg width="12" height="12" viewBox="0 0 12 12" fill="none" xmlns="http://www.w3.org/2000/svg">
<path d="M1.98047 1.73047C3.09245 0.61849 4.43229 0.0625 6 0.0625C7.56771 0.0625 8.90755 0.61849 10.0195 1.73047C11.1315 2.84245 11.6875 4.18229 11.6875 5.75C11.6875 7.31771 11.1315 8.65755 10.0195 9.76953C8.90755 10.8815 7.56771 11.4375 6 11.4375C4.43229 11.4375 3.09245 10.8815 1.98047 9.76953C0.86849 8.65755 0.3125 7.31771 0.3125 5.75C0.3125 4.18229 0.86849 2.84245 1.98047 1.73047ZM9.39062 2.35938C8.46094 1.41146 7.33073 0.9375 6 0.9375C4.66927 0.9375 3.52995 1.41146 2.58203 2.35938C1.65234 3.28906 1.1875 4.41927 1.1875 5.75C1.1875 7.08073 1.65234 8.22005 2.58203 9.16797C3.52995 10.0977 4.66927 10.5625 6 10.5625C7.33073 10.5625 8.46094 10.0977 9.39062 9.16797C10.3385 8.22005 10.8125 7.08073 10.8125 5.75C10.8125 4.41927 10.3385 3.28906 9.39062 2.35938ZM5.5625 3.125H6.4375V5.3125H8.625V6.1875H6.4375V8.375H5.5625V6.1875H3.375V5.3125H5.5625V3.125Z" fill="#98A9BC"/>
</svg>
